<?xml version="1.0" encoding="UTF-8" standalone="no"?>
<!-- Generated by SVGo -->

<svg
   xmlns:dc="http://purl.org/dc/elements/1.1/"
   xmlns:cc="http://creativecommons.org/ns#"
   xmlns:rdf="http://www.w3.org/1999/02/22-rdf-syntax-ns#"
   xmlns:svg="http://www.w3.org/2000/svg"
   xmlns="http://www.w3.org/2000/svg"
   xmlns:sodipodi="http://sodipodi.sourceforge.net/DTD/sodipodi-0.dtd"
   xmlns:inkscape="http://www.inkscape.org/namespaces/inkscape"
   width="98.351mm"
   height="117.401mm"
   viewBox="0.000 0.000 98.351 117.401"
   id="svg5657"
   version="1.1"
   inkscape:version="0.91 r13725"
   sodipodi:docname="bottom_numpad.svg">
  <metadata
     id="metadata5681">
    <rdf:RDF>
      <cc:Work
         rdf:about="">
        <dc:format>image/svg+xml</dc:format>
        <dc:type
           rdf:resource="http://purl.org/dc/dcmitype/StillImage" />
      </cc:Work>
    </rdf:RDF>
  </metadata>
  <defs
     id="defs5679" />
  <sodipodi:namedview
     pagecolor="#ffffff"
     bordercolor="#666666"
     borderopacity="1"
     objecttolerance="10"
     gridtolerance="10"
     guidetolerance="10"
     inkscape:pageopacity="0"
     inkscape:pageshadow="2"
     inkscape:window-width="1823"
     inkscape:window-height="1099"
     id="namedview5677"
     showgrid="false"
     inkscape:zoom="2.2692973"
     inkscape:cx="141.0845"
     inkscape:cy="209.62515"
     inkscape:window-x="75"
     inkscape:window-y="0"
     inkscape:window-maximized="0"
     inkscape:current-layer="svg5657" />
  <polygon
     points="91.351,5.000 91.507,5.006 91.663,5.024 91.817,5.055 91.969,5.097 92.116,5.152 92.258,5.217 92.395,5.294 92.526,5.381 92.649,5.479 92.765,5.585 92.871,5.701 92.969,5.824 93.056,5.955 93.133,6.092 93.198,6.234 93.253,6.381 93.295,6.533 93.326,6.687 93.344,6.843 93.350,7.000 93.351,110.401 93.344,110.557 93.326,110.713 93.295,110.867 93.253,111.019 93.198,111.166 93.133,111.308 93.056,111.445 92.969,111.576 92.871,111.699 92.765,111.815 92.649,111.921 92.526,112.019 92.395,112.106 92.258,112.183 92.116,112.248 91.969,112.303 91.817,112.345 91.663,112.376 91.507,112.394 91.351,112.400 7.000,112.401 6.843,112.394 6.687,112.376 6.533,112.345 6.381,112.303 6.234,112.248 6.092,112.183 5.955,112.106 5.824,112.019 5.701,111.921 5.585,111.815 5.479,111.699 5.381,111.576 5.294,111.445 5.217,111.308 5.152,111.166 5.097,111.019 5.055,110.867 5.024,110.713 5.006,110.557 4.999,110.401 5.000,7.000 5.006,6.843 5.024,6.687 5.055,6.533 5.097,6.381 5.152,6.234 5.217,6.092 5.294,5.955 5.381,5.824 5.479,5.701 5.585,5.585 5.701,5.479 5.824,5.381 5.955,5.294 6.092,5.217 6.234,5.152 6.381,5.097 6.533,5.055 6.687,5.024 6.843,5.006 7.000,4.999"
     style="fill:none;stroke-width:0.01;stroke:blue;stroke-miterlimit:4;stroke-dasharray:none"
     id="polygon5659" />
  <polygon
     points="89.702,108.537 89.487,108.752 89.348,109.024 89.301,109.326 89.348,109.627 89.487,109.899 89.702,110.114 89.974,110.253 90.276,110.301 90.577,110.253 90.849,110.114 91.064,109.899 91.203,109.627 91.25,109.326 91.203,109.024 91.064,108.752 90.849,108.537 90.577,108.398 90.276,108.351 89.974,108.398 "
     style="fill:none;stroke:#0000ff;stroke-width:0.0110329;stroke-miterlimit:4;stroke-dasharray:none"
     id="polygon5661"
     transform="matrix(0.90638001,0,0,0.90638001,8.3508835,10.335858)" />
  <polygon
     points="48.602,108.537 48.386,108.752 48.248,109.024 48.2,109.326 48.248,109.627 48.386,109.899 48.602,110.114 48.874,110.253 49.175,110.301 49.476,110.253 49.748,110.114 49.964,109.899 50.102,109.627 50.15,109.326 50.102,109.024 49.964,108.752 49.748,108.537 49.476,108.398 49.175,108.351 48.874,108.398 "
     style="fill:none;stroke:#0000ff;stroke-width:0.01103856;stroke-miterlimit:4;stroke-dasharray:none"
     id="polygon5663"
     transform="matrix(0.90591546,0,0,0.90591546,4.5253477,10.387146)" />
  <polygon
     points="7.501,108.537 7.286,108.752 7.147,109.024 7.1,109.326 7.147,109.627 7.286,109.899 7.501,110.114 7.773,110.253 8.074,110.301 8.376,110.253 8.648,110.114 8.863,109.899 9.002,109.627 9.05,109.326 9.002,109.024 8.863,108.752 8.648,108.537 8.376,108.398 8.074,108.351 7.773,108.398 "
     style="fill:none;stroke:#0000ff;stroke-width:0.01103829;stroke-miterlimit:4;stroke-dasharray:none"
     id="polygon5665"
     transform="matrix(0.90593719,0,0,0.90593719,0.65832608,10.384747)" />
  <polygon
     points="89.487,58.127 89.348,58.399 89.301,58.7 89.348,59.001 89.487,59.273 89.702,59.489 89.974,59.627 90.276,59.675 90.577,59.627 90.849,59.489 91.064,59.273 91.203,59.001 91.25,58.7 91.203,58.399 91.064,58.127 90.849,57.911 90.577,57.773 90.276,57.725 89.974,57.773 89.702,57.911 "
     style="fill:none;stroke:#0000ff;stroke-width:0.0110662;stroke-miterlimit:4;stroke-dasharray:none"
     id="polygon5667"
     transform="matrix(0.90639486,0,0,0.90091787,8.3495382,5.9227531)" />
  <polygon
     points="7.1,58.7 7.147,59.001 7.286,59.273 7.501,59.489 7.773,59.627 8.074,59.675 8.376,59.627 8.648,59.489 8.863,59.273 9.002,59.001 9.05,58.7 9.002,58.399 8.863,58.127 8.648,57.911 8.376,57.773 8.074,57.725 7.773,57.773 7.501,57.911 7.286,58.127 7.147,58.399 "
     style="fill:none;stroke:#0000ff;stroke-width:0.01103525;stroke-miterlimit:4;stroke-dasharray:none"
     id="polygon5669"
     transform="matrix(0.90593376,0,0,0.90644102,0.65863527,5.5929032)" />
  <polygon
     points="7.147,7.773 7.1,8.074 7.147,8.376 7.286,8.648 7.501,8.863 7.773,9.002 8.074,9.05 8.376,9.002 8.648,8.863 8.863,8.648 9.002,8.376 9.05,8.074 9.002,7.773 8.863,7.501 8.648,7.286 8.376,7.147 8.074,7.1 7.773,7.147 7.501,7.286 7.286,7.501 "
     style="fill:none;stroke:#0000ff;stroke-width:0.01103833;stroke-miterlimit:4;stroke-dasharray:none"
     id="polygon5671"
     transform="matrix(0.90567095,0,0,0.90619697,0.66047588,0.85871677)" />
  <polygon
     points="48.248,7.773 48.2,8.074 48.248,8.376 48.386,8.648 48.602,8.863 48.874,9.002 49.175,9.049 49.476,9.002 49.748,8.863 49.964,8.648 50.102,8.376 50.15,8.074 50.102,7.773 49.964,7.501 49.748,7.286 49.476,7.147 49.175,7.1 48.874,7.147 48.602,7.286 48.386,7.501 "
     style="fill:none;stroke:#0000ff;stroke-width:0.01103593;stroke-miterlimit:4;stroke-dasharray:none"
     id="polygon5673"
     transform="matrix(0.9056276,0,0,0.90663547,4.539503,0.85462929)" />
  <polygon
     points="89.348,7.773 89.301,8.074 89.348,8.376 89.487,8.648 89.702,8.863 89.974,9.002 90.276,9.049 90.577,9.002 90.849,8.863 91.064,8.648 91.203,8.376 91.25,8.074 91.203,7.773 91.064,7.501 90.849,7.286 90.577,7.147 90.276,7.1 89.974,7.147 89.702,7.286 89.487,7.501 "
     style="fill:none;stroke:#0000ff;stroke-width:0.01103293;stroke-miterlimit:4;stroke-dasharray:none"
     id="polygon5675"
     transform="matrix(0.90611613,0,0,0.90663874,8.3747059,0.85457265)" />
</svg>
