<?xml version="1.0"?>
<!-- Generated by SVGo -->
<svg width="98.351mm" height="117.401mm"
     viewBox="0.000 0.000 98.351 117.401"
     xmlns="http://www.w3.org/2000/svg" 
     xmlns:xlink="http://www.w3.org/1999/xlink">
<polygon points="91.351,5.000 91.507,5.006 91.663,5.024 91.817,5.055 91.969,5.097 92.116,5.152 92.258,5.217 92.395,5.294 92.526,5.381 92.649,5.479 92.765,5.585 92.871,5.701 92.969,5.824 93.056,5.955 93.133,6.092 93.198,6.234 93.253,6.381 93.295,6.533 93.326,6.687 93.344,6.843 93.350,7.000 93.351,110.401 93.344,110.557 93.326,110.713 93.295,110.867 93.253,111.019 93.198,111.166 93.133,111.308 93.056,111.445 92.969,111.576 92.871,111.699 92.765,111.815 92.649,111.921 92.526,112.019 92.395,112.106 92.258,112.183 92.116,112.248 91.969,112.303 91.817,112.345 91.663,112.376 91.507,112.394 91.351,112.400 7.000,112.401 6.843,112.394 6.687,112.376 6.533,112.345 6.381,112.303 6.234,112.248 6.092,112.183 5.955,112.106 5.824,112.019 5.701,111.921 5.585,111.815 5.479,111.699 5.381,111.576 5.294,111.445 5.217,111.308 5.152,111.166 5.097,111.019 5.055,110.867 5.024,110.713 5.006,110.557 4.999,110.401 5.000,7.000 5.006,6.843 5.024,6.687 5.055,6.533 5.097,6.381 5.152,6.234 5.217,6.092 5.294,5.955 5.381,5.824 5.479,5.701 5.585,5.585 5.701,5.479 5.824,5.381 5.955,5.294 6.092,5.217 6.234,5.152 6.381,5.097 6.533,5.055 6.687,5.024 6.843,5.006 7.000,4.999" style="fill:none;stroke-width:0.2;stroke:blue"/>
<polygon points="89.974,108.398 89.702,108.537 89.487,108.752 89.348,109.024 89.301,109.326 89.348,109.627 89.487,109.899 89.702,110.114 89.974,110.253 90.276,110.301 90.577,110.253 90.849,110.114 91.064,109.899 91.203,109.627 91.250,109.326 91.203,109.024 91.064,108.752 90.849,108.537 90.577,108.398 90.276,108.351" style="fill:none;stroke-width:0.2;stroke:blue"/>
<polygon points="48.874,108.398 48.602,108.537 48.386,108.752 48.248,109.024 48.200,109.326 48.248,109.627 48.386,109.899 48.602,110.114 48.874,110.253 49.175,110.301 49.476,110.253 49.748,110.114 49.964,109.899 50.102,109.627 50.150,109.326 50.102,109.024 49.964,108.752 49.748,108.537 49.476,108.398 49.175,108.351" style="fill:none;stroke-width:0.2;stroke:blue"/>
<polygon points="7.773,108.398 7.501,108.537 7.286,108.752 7.147,109.024 7.100,109.326 7.147,109.627 7.286,109.899 7.501,110.114 7.773,110.253 8.074,110.301 8.376,110.253 8.648,110.114 8.863,109.899 9.002,109.627 9.050,109.326 9.002,109.024 8.863,108.752 8.648,108.537 8.376,108.398 8.074,108.351" style="fill:none;stroke-width:0.2;stroke:blue"/>
<polygon points="16.650,90.425 16.650,104.475 19.800,104.475 19.800,90.425" style="fill:none;stroke-width:0.2;stroke:blue"/>
<polygon points="40.450,90.425 40.450,104.475 43.600,104.475 43.600,90.425" style="fill:none;stroke-width:0.2;stroke:blue"/>
<polygon points="23.200,89.875 23.200,90.875 22.400,90.875 22.400,93.825 23.200,93.825 23.200,99.775 22.400,99.775 22.400,102.725 23.200,102.725 23.200,103.725 37.050,103.725 37.050,102.725 37.850,102.725 37.850,99.775 37.050,99.775 37.050,93.825 37.850,93.825 37.850,90.875 37.050,90.875 37.050,89.875" style="fill:none;stroke-width:0.2;stroke:blue"/>
<polygon points="51.775,89.875 51.775,90.875 50.975,90.875 50.975,93.825 51.775,93.825 51.775,99.775 50.975,99.775 50.975,102.725 51.775,102.725 51.775,103.725 65.625,103.725 65.625,102.725 66.425,102.725 66.425,99.775 65.625,99.775 65.625,93.825 66.425,93.825 66.425,90.875 65.625,90.875 65.625,89.875" style="fill:none;stroke-width:0.2;stroke:blue"/>
<polygon points="70.075,97.600 70.075,100.750 84.125,100.750 84.125,97.600" style="fill:none;stroke-width:0.2;stroke:blue"/>
<polygon points="71.825,79.550 71.825,80.350 70.825,80.350 70.825,94.200 71.825,94.200 71.825,95.000 74.775,95.000 74.775,94.200 80.725,94.200 80.725,95.000 83.675,95.000 83.675,94.200 84.675,94.200 84.675,80.350 83.675,80.350 83.675,79.550 80.725,79.550 80.725,80.350 74.775,80.350 74.775,79.550" style="fill:none;stroke-width:0.2;stroke:blue"/>
<polygon points="13.675,70.825 13.675,71.825 12.875,71.825 12.875,74.775 13.675,74.775 13.675,80.725 12.875,80.725 12.875,83.675 13.675,83.675 13.675,84.675 27.525,84.675 27.525,83.675 28.325,83.675 28.325,80.725 27.525,80.725 27.525,74.775 28.325,74.775 28.325,71.825 27.525,71.825 27.525,70.825" style="fill:none;stroke-width:0.2;stroke:blue"/>
<polygon points="32.725,70.825 32.725,71.825 31.925,71.825 31.925,74.775 32.725,74.775 32.725,80.725 31.925,80.725 31.925,83.675 32.725,83.675 32.725,84.675 46.575,84.675 46.575,83.675 47.375,83.675 47.375,80.725 46.575,80.725 46.575,74.775 47.375,74.775 47.375,71.825 46.575,71.825 46.575,70.825" style="fill:none;stroke-width:0.2;stroke:blue"/>
<polygon points="51.775,70.825 51.775,71.825 50.975,71.825 50.975,74.775 51.775,74.775 51.775,80.725 50.975,80.725 50.975,83.675 51.775,83.675 51.775,84.675 65.625,84.675 65.625,83.675 66.425,83.675 66.425,80.725 65.625,80.725 65.625,74.775 66.425,74.775 66.425,71.825 65.625,71.825 65.625,70.825" style="fill:none;stroke-width:0.2;stroke:blue"/>
<polygon points="70.075,73.800 70.075,76.950 84.125,76.950 84.125,73.800" style="fill:none;stroke-width:0.2;stroke:blue"/>
<polygon points="13.675,51.775 13.675,52.775 12.875,52.775 12.875,55.725 13.675,55.725 13.675,61.675 12.875,61.675 12.875,64.625 13.675,64.625 13.675,65.625 27.525,65.625 27.525,64.625 28.325,64.625 28.325,61.675 27.525,61.675 27.525,55.725 28.325,55.725 28.325,52.775 27.525,52.775 27.525,51.775" style="fill:none;stroke-width:0.2;stroke:blue"/>
<polygon points="32.725,51.775 32.725,52.775 31.925,52.775 31.925,55.725 32.725,55.725 32.725,61.675 31.925,61.675 31.925,64.625 32.725,64.625 32.725,65.625 46.575,65.625 46.575,64.625 47.375,64.625 47.375,61.675 46.575,61.675 46.575,55.725 47.375,55.725 47.375,52.775 46.575,52.775 46.575,51.775" style="fill:none;stroke-width:0.2;stroke:blue"/>
<polygon points="51.775,51.775 51.775,52.775 50.975,52.775 50.975,55.725 51.775,55.725 51.775,61.675 50.975,61.675 50.975,64.625 51.775,64.625 51.775,65.625 65.625,65.625 65.625,64.625 66.425,64.625 66.425,61.675 65.625,61.675 65.625,55.725 66.425,55.725 66.425,52.775 65.625,52.775 65.625,51.775" style="fill:none;stroke-width:0.2;stroke:blue"/>
<polygon points="70.075,59.500 70.075,62.650 84.125,62.650 84.125,59.500" style="fill:none;stroke-width:0.2;stroke:blue"/>
<polygon points="89.974,57.773 89.702,57.911 89.487,58.127 89.348,58.399 89.301,58.700 89.348,59.001 89.487,59.273 89.702,59.489 89.974,59.627 90.276,59.675 90.577,59.627 90.849,59.489 91.064,59.273 91.203,59.001 91.250,58.700 91.203,58.399 91.064,58.127 90.849,57.911 90.577,57.773 90.276,57.725" style="fill:none;stroke-width:0.2;stroke:blue"/>
<polygon points="7.773,57.773 7.501,57.911 7.286,58.127 7.147,58.399 7.100,58.700 7.147,59.001 7.286,59.273 7.501,59.489 7.773,59.627 8.074,59.675 8.376,59.627 8.648,59.489 8.863,59.273 9.002,59.001 9.050,58.700 9.002,58.399 8.863,58.127 8.648,57.911 8.376,57.773 8.074,57.725" style="fill:none;stroke-width:0.2;stroke:blue"/>
<polygon points="71.825,41.450 71.825,42.250 70.825,42.250 70.825,56.100 71.825,56.100 71.825,56.900 74.775,56.900 74.775,56.100 80.725,56.100 80.725,56.900 83.675,56.900 83.675,56.100 84.675,56.100 84.675,42.250 83.675,42.250 83.675,41.450 80.725,41.450 80.725,42.250 74.775,42.250 74.775,41.450" style="fill:none;stroke-width:0.2;stroke:blue"/>
<polygon points="13.675,32.725 13.675,33.725 12.875,33.725 12.875,36.675 13.675,36.675 13.675,42.625 12.875,42.625 12.875,45.575 13.675,45.575 13.675,46.575 27.525,46.575 27.525,45.575 28.325,45.575 28.325,42.625 27.525,42.625 27.525,36.675 28.325,36.675 28.325,33.725 27.525,33.725 27.525,32.725" style="fill:none;stroke-width:0.2;stroke:blue"/>
<polygon points="32.725,32.725 32.725,33.725 31.925,33.725 31.925,36.675 32.725,36.675 32.725,42.625 31.925,42.625 31.925,45.575 32.725,45.575 32.725,46.575 46.575,46.575 46.575,45.575 47.375,45.575 47.375,42.625 46.575,42.625 46.575,36.675 47.375,36.675 47.375,33.725 46.575,33.725 46.575,32.725" style="fill:none;stroke-width:0.2;stroke:blue"/>
<polygon points="51.775,32.725 51.775,33.725 50.975,33.725 50.975,36.675 51.775,36.675 51.775,42.625 50.975,42.625 50.975,45.575 51.775,45.575 51.775,46.575 65.625,46.575 65.625,45.575 66.425,45.575 66.425,42.625 65.625,42.625 65.625,36.675 66.425,36.675 66.425,33.725 65.625,33.725 65.625,32.725" style="fill:none;stroke-width:0.2;stroke:blue"/>
<polygon points="70.075,35.700 70.075,38.850 84.125,38.850 84.125,35.700" style="fill:none;stroke-width:0.2;stroke:blue"/>
<polygon points="13.675,13.675 13.675,14.675 12.875,14.675 12.875,17.625 13.675,17.625 13.675,23.575 12.875,23.575 12.875,26.525 13.675,26.525 13.675,27.525 27.525,27.525 27.525,26.525 28.325,26.525 28.325,23.575 27.525,23.575 27.525,17.625 28.325,17.625 28.325,14.675 27.525,14.675 27.525,13.675" style="fill:none;stroke-width:0.2;stroke:blue"/>
<polygon points="32.725,13.675 32.725,14.675 31.925,14.675 31.925,17.625 32.725,17.625 32.725,23.575 31.925,23.575 31.925,26.525 32.725,26.525 32.725,27.525 46.575,27.525 46.575,26.525 47.375,26.525 47.375,23.575 46.575,23.575 46.575,17.625 47.375,17.625 47.375,14.675 46.575,14.675 46.575,13.675" style="fill:none;stroke-width:0.2;stroke:blue"/>
<polygon points="51.775,13.675 51.775,14.675 50.975,14.675 50.975,17.625 51.775,17.625 51.775,23.575 50.975,23.575 50.975,26.525 51.775,26.525 51.775,27.525 65.625,27.525 65.625,26.525 66.425,26.525 66.425,23.575 65.625,23.575 65.625,17.625 66.425,17.625 66.425,14.675 65.625,14.675 65.625,13.675" style="fill:none;stroke-width:0.2;stroke:blue"/>
<polygon points="70.825,13.675 70.825,14.675 70.025,14.675 70.025,17.625 70.825,17.625 70.825,23.575 70.025,23.575 70.025,26.525 70.825,26.525 70.825,27.525 84.675,27.525 84.675,26.525 85.475,26.525 85.475,23.575 84.675,23.575 84.675,17.625 85.475,17.625 85.475,14.675 84.675,14.675 84.675,13.675" style="fill:none;stroke-width:0.2;stroke:blue"/>
<polygon points="7.773,7.147 7.501,7.286 7.286,7.501 7.147,7.773 7.100,8.074 7.147,8.376 7.286,8.648 7.501,8.863 7.773,9.002 8.074,9.050 8.376,9.002 8.648,8.863 8.863,8.648 9.002,8.376 9.050,8.074 9.002,7.773 8.863,7.501 8.648,7.286 8.376,7.147 8.074,7.100" style="fill:none;stroke-width:0.2;stroke:blue"/>
<polygon points="48.874,7.147 48.602,7.286 48.386,7.501 48.248,7.773 48.200,8.074 48.248,8.376 48.386,8.648 48.602,8.863 48.874,9.002 49.175,9.049 49.476,9.002 49.748,8.863 49.964,8.648 50.102,8.376 50.150,8.074 50.102,7.773 49.964,7.501 49.748,7.286 49.476,7.147 49.175,7.100" style="fill:none;stroke-width:0.2;stroke:blue"/>
<polygon points="89.974,7.147 89.702,7.286 89.487,7.501 89.348,7.773 89.301,8.074 89.348,8.376 89.487,8.648 89.702,8.863 89.974,9.002 90.276,9.049 90.577,9.002 90.849,8.863 91.064,8.648 91.203,8.376 91.250,8.074 91.203,7.773 91.064,7.501 90.849,7.286 90.577,7.147 90.276,7.100" style="fill:none;stroke-width:0.2;stroke:blue"/>
</svg>
